<svg id="icon" viewBox="0 0 64 64" xmlns="http://www.w3.org/2000/svg" xmlns:xlink="http://www.w3.org/1999/xlink"><linearGradient id="linear-gradient" gradientUnits="userSpaceOnUse" x1="32" x2="32" y1="57.56" y2="6.44"><stop offset="0" stop-color="#fcb0f3"/><stop offset="1" stop-color="#3d05dd"/></linearGradient><path d="m25.12 45.96 5.93-2.65v7.59c-.19 8.64-13.25 8.87-13.81.37l2.6-6.57 4.28 1.3v3.63c-2.03.53-1.6 3.4.5 3.4s2.54-2.87.5-3.4zm-9.25-7.82s-3.32 2.17-3.36 2.2c-4.15 3.08-1.16 10.87 3.87 10.38l2.62-6.6zm9.16-.75c-.88 0-1.62-.59-1.79-1.37l-2.67-1.02c-.12-.04-.22-.14-.28-.27l-2.63-6.12-3.23 2.71c.98 2.64-3.37 3.43-3.53.68-.04-1.38 1.76-2.23 2.88-1.43l3.09-2.61-5.19-1.84c-5.98 2.15-5.65 11.59.48 13.26l3.63-2.38c.22-.16.59-.06.71.19 0 0 3.39 6.48 3.39 6.48l4.7 1.43 6.46-2.88v-6.07h-4.28c-.21.72-.91 1.24-1.74 1.24zm.6-30.95c-2.55 0-4.78 1.28-5.3 3.05-.07.22-.26.36-.5.35-3.12-.23-5.81 3.52-4.3 6.36.17.3-.06.7-.39.72-3.66.26-6.15 5.73-3.21 8.22 0 0 5.58 1.99 5.58 1.99l.75-2.81c-2.19-1.3-.02-4.26 2-2.89l3.86-2.62v-4.89c-2.04-.53-1.6-3.41.5-3.41s2.54 2.88.5 3.41v5.15c0 .17-.08.32-.22.42l-4 2.71c.46 1.12-.44 2.37-1.67 2.37l-.85 3.19 2.75 6.39 2.21.83c.58-1.48 3.03-1.38 3.43.17h4.28v-11.22h-3.18c-.57 1.88-3.58 1.49-3.59-.5 0-1.99 3.02-2.38 3.59-.5h3.18v-12.68c0-2.1-2.43-3.81-5.42-3.81zm-.35 16.99c0 .97 1.67.97 1.68 0 0-.97-1.67-.97-1.68 0zm-6.3.12c1.2.23 1.44-1.42.21-1.46-.96 0-1.15 1.24-.21 1.46zm6.88 12.1c0-.97-1.66-.96-1.67 0 0 .96 1.67.97 1.67 0zm-13.96-3.65c0 .97 1.67.97 1.68 0 0-.97-1.67-.97-1.68 0zm11.88 19.29c0 .97 1.67.97 1.68 0 0-.97-1.67-.97-1.68 0zm1.68-39.03c-.02-.98-1.66-.98-1.68 0 0 .97 1.67.97 1.68 0zm26.03 28.08s-3.33-2.18-3.36-2.2l-3.13 5.98 2.62 6.6c5.04.47 8.02-7.29 3.87-10.38zm-12.52-6.43c.76 0 1.42.44 1.69 1.07l2.21-.83 2.75-6.41-.85-3.17c-1.23 0-2.13-1.25-1.67-2.37l-4-2.71c-.14-.1-.22-.25-.22-.42v-5.15c-2.04-.53-1.6-3.41.5-3.41 2.09 0 2.52 2.89.5 3.41v4.89l3.86 2.62c2.02-1.37 4.19 1.59 2 2.89l.75 2.81s5.58-1.99 5.58-1.99c2.94-2.49.45-7.96-3.21-8.22-.33-.02-.56-.42-.39-.72 1.5-2.84-1.16-6.59-4.3-6.36-.22.02-.44-.13-.5-.35-1.29-4.34-10.56-3.91-10.72.76v12.68h3.18c.57-1.88 3.58-1.49 3.59.5 0 1.99-3.02 2.38-3.59.5h-3.18v11.22h4.28c.21-.72.91-1.24 1.74-1.24zm13.35-7.79-5.19 1.84 3.09 2.61c1.12-.8 2.92.05 2.88 1.43-.17 2.75-4.51 1.96-3.53-.68l-3.23-2.71-2.63 6.12c-.06.13-.16.23-.29.27l-2.65 1.01c-.37 1.73-3.05 1.85-3.54.14h-4.28v6.07l6.46 2.88 4.7-1.43 3.39-6.48c.12-.25.49-.35.71-.19 0 0 3.63 2.38 3.63 2.38 6.13-1.68 6.46-11.11.48-13.26zm-12.44 19.88v3.63c2.02.52 1.59 3.4-.5 3.4-2.1 0-2.53-2.87-.5-3.4v-3.67l-5.93-2.65v7.61c.05 2.99 1.99 5.66 5.14 6.42 4.2 1.05 8.59-1.85 8.67-6.08 0 0-2.6-6.56-2.6-6.56zm-1.16-22.57c0-.97-1.67-.97-1.68 0 0 .97 1.67.97 1.68 0zm5.47-1.09c-.57.55.1 1.4.83 1.21 1.41-.46.15-2.1-.83-1.21zm-6.05 13.31c0 .97 1.66.96 1.67 0 0-.96-1.67-.97-1.67 0zm13.96-3.65c0-.97-1.67-.97-1.68 0 0 .97 1.67.97 1.68 0zm-13.56 19.29c0 .96 1.67.97 1.67 0s-1.66-.96-1.67 0zm1.67-39.03c-.02-.99-1.65-.98-1.67 0 0 .96 1.67.97 1.67 0z" fill="url(#linear-gradient)"/></svg>